<svg width="28" height="28" viewBox="0 0 28 28" fill="none" xmlns="http://www.w3.org/2000/svg">
<path d="M7.78403 0.559996C7.98003 0.559996 8.14803 0.643996 8.28803 0.755996L20.216 12.264C21.168 13.188 21.196 14.728 20.272 15.68C20.244 15.708 20.216 15.736 20.216 15.736L8.28803 27.216C8.03603 27.524 7.56003 27.58 7.25203 27.328C6.94403 27.076 6.88803 26.6 7.14003 26.292C7.16803 26.236 7.22403 26.208 7.28003 26.152L19.18 14.672C19.544 14.308 19.572 13.72 19.208 13.328L19.18 13.3L7.28003 1.82C7.00003 1.54 6.97203 1.064 7.25203 0.783997C7.39203 0.643998 7.58803 0.559996 7.78403 0.559996Z" fill="black"/>
</svg>
