<svg width="19" height="14" viewBox="0 0 19 14" fill="none" xmlns="http://www.w3.org/2000/svg">
<path d="M9.4995 13.9999C9.40256 13.9999 9.25715 13.9537 9.20868 13.9075L0.193376 6.56097C-0.000501456 6.37615 -0.0489708 6.09892 0.144907 5.9141C0.338784 5.72929 0.629601 5.68308 0.823478 5.8679L9.54797 12.9372L18.2725 5.8679C18.4663 5.68308 18.8056 5.72929 18.951 5.9141C19.1449 6.09892 19.0964 6.42235 18.9026 6.56097L9.79032 13.8613C9.74185 13.9537 9.59644 13.9999 9.4995 13.9999Z" fill="white"/>
<path d="M9.4995 8.27058C9.40256 8.27058 9.25715 8.22438 9.20868 8.17817L0.193376 0.831639C-0.000501454 0.64682 -0.0489708 0.369593 0.144907 0.184774C0.338784 -4.42662e-05 0.629601 -0.0462489 0.823478 0.13857L9.54797 7.20788L18.2725 0.13857C18.4179 -0.0462489 18.7087 -0.0462489 18.9026 0.184774C19.0964 0.369593 19.048 0.693025 18.8541 0.831639L9.79032 8.13197C9.74185 8.22438 9.59644 8.27058 9.4995 8.27058Z" fill="white"/>
</svg>
