<svg width="25" height="21" viewBox="0 0 25 21" fill="none" xmlns="http://www.w3.org/2000/svg">
<path d="M18.0082 20.9358H7.11206C6.86582 20.9358 6.68114 20.8095 6.55802 20.6202L1.07916 10.9619C0.956036 10.7725 0.956036 10.52 1.07916 10.3306L6.55802 0.609209C6.68114 0.419831 6.86582 0.293579 7.11206 0.293579H18.0082C18.2545 0.293579 18.4392 0.419831 18.5623 0.609209L24.0411 10.3306C24.1643 10.52 24.1643 10.7725 24.0411 10.9619L18.5623 20.6833C18.4392 20.8095 18.2545 20.9358 18.0082 20.9358ZM7.41987 19.6733H17.6389L22.7484 10.5831L17.6389 1.5561H7.41987L2.37192 10.6462L7.41987 19.6733Z" fill="white"/>
</svg>
