<svg width="21" height="21" viewBox="0 0 21 21" fill="none" xmlns="http://www.w3.org/2000/svg">
<path d="M20.8313 20.0437C21.0562 20.2687 21.0562 20.6063 20.8313 20.8313C20.6063 21.0562 20.2687 21.0562 20.0437 20.8313L13.9688 14.7562C13.8562 14.6438 13.6875 14.6438 13.575 14.7562C13.575 14.7562 13.4625 14.8125 13.2937 14.9812C12 15.9375 10.3687 16.5 8.625 16.5C4.29375 16.5 0.75 12.9563 0.75 8.625C0.75 4.29375 4.29375 0.75 8.625 0.75C12.9563 0.75 16.5 4.29375 16.5 8.625C16.5 10.3125 15.9375 11.9438 15.0375 13.2375C14.925 13.4062 14.7562 13.575 14.7562 13.575C14.6438 13.6875 14.6438 13.8562 14.7562 13.9688L20.8313 20.0437ZM8.625 15.375C12.3375 15.375 15.375 12.3375 15.375 8.625C15.375 4.9125 12.3375 1.875 8.625 1.875C4.9125 1.875 1.875 4.9125 1.875 8.625C1.875 12.3375 4.9125 15.375 8.625 15.375Z" fill="white"/>
</svg>
